<mxfile host="Electron" agent="Mozilla/5.0 (Windows NT 10.0; Win64; x64) AppleWebKit/537.36 (KHTML, like Gecko) draw.io/26.2.2 Chrome/134.0.6998.178 Electron/35.1.2 Safari/537.36" version="26.2.2">
  <diagram name="Page-1" id="2YBvvXClWsGukQMizWep">
    <mxGraphModel dx="2060" dy="606" grid="1" gridSize="10" guides="1" tooltips="1" connect="1" arrows="1" fold="1" page="1" pageScale="1" pageWidth="850" pageHeight="1100" math="0" shadow="0">
      <root>
        <mxCell id="0" />
        <mxCell id="1" parent="0" />
        <mxCell id="fiOTLvw5Z7WKKcR00BfA-2" value="" style="shape=umlLifeline;perimeter=lifelinePerimeter;whiteSpace=wrap;html=1;container=1;dropTarget=0;collapsible=0;recursiveResize=0;outlineConnect=0;portConstraint=eastwest;newEdgeStyle={&quot;curved&quot;:0,&quot;rounded&quot;:0};participant=umlActor;" vertex="1" parent="1">
          <mxGeometry x="-453" y="65" width="20" height="355" as="geometry" />
        </mxCell>
        <mxCell id="fiOTLvw5Z7WKKcR00BfA-4" value="Controller" style="shape=umlLifeline;perimeter=lifelinePerimeter;whiteSpace=wrap;html=1;container=1;dropTarget=0;collapsible=0;recursiveResize=0;outlineConnect=0;portConstraint=eastwest;newEdgeStyle={&quot;curved&quot;:0,&quot;rounded&quot;:0};" vertex="1" parent="1">
          <mxGeometry x="-274" y="80" width="100" height="340" as="geometry" />
        </mxCell>
        <mxCell id="fiOTLvw5Z7WKKcR00BfA-39" value="" style="html=1;points=[[0,0,0,0,5],[0,1,0,0,-5],[1,0,0,0,5],[1,1,0,0,-5]];perimeter=orthogonalPerimeter;outlineConnect=0;targetShapes=umlLifeline;portConstraint=eastwest;newEdgeStyle={&quot;curved&quot;:0,&quot;rounded&quot;:0};" vertex="1" parent="fiOTLvw5Z7WKKcR00BfA-4">
          <mxGeometry x="45" y="80" width="10" height="200" as="geometry" />
        </mxCell>
        <mxCell id="fiOTLvw5Z7WKKcR00BfA-8" value="Service" style="shape=umlLifeline;perimeter=lifelinePerimeter;whiteSpace=wrap;html=1;container=1;dropTarget=0;collapsible=0;recursiveResize=0;outlineConnect=0;portConstraint=eastwest;newEdgeStyle={&quot;curved&quot;:0,&quot;rounded&quot;:0};" vertex="1" parent="1">
          <mxGeometry x="-50.7" y="80" width="100" height="340" as="geometry" />
        </mxCell>
        <mxCell id="fiOTLvw5Z7WKKcR00BfA-38" value="" style="html=1;points=[[0,0,0,0,5],[0,1,0,0,-5],[1,0,0,0,5],[1,1,0,0,-5]];perimeter=orthogonalPerimeter;outlineConnect=0;targetShapes=umlLifeline;portConstraint=eastwest;newEdgeStyle={&quot;curved&quot;:0,&quot;rounded&quot;:0};" vertex="1" parent="fiOTLvw5Z7WKKcR00BfA-8">
          <mxGeometry x="44.7" y="100" width="10" height="100" as="geometry" />
        </mxCell>
        <mxCell id="fiOTLvw5Z7WKKcR00BfA-9" value="Database" style="shape=umlLifeline;perimeter=lifelinePerimeter;whiteSpace=wrap;html=1;container=1;dropTarget=0;collapsible=0;recursiveResize=0;outlineConnect=0;portConstraint=eastwest;newEdgeStyle={&quot;curved&quot;:0,&quot;rounded&quot;:0};" vertex="1" parent="1">
          <mxGeometry x="169.3" y="80" width="100" height="340" as="geometry" />
        </mxCell>
        <mxCell id="fiOTLvw5Z7WKKcR00BfA-13" value="Gửi yêu cầu đăng xuất" style="html=1;verticalAlign=bottom;endArrow=block;curved=0;rounded=0;" edge="1" parent="1">
          <mxGeometry width="80" relative="1" as="geometry">
            <mxPoint x="-224.2142857142855" y="180" as="sourcePoint" />
            <mxPoint x="-1.199999999999772" y="180" as="targetPoint" />
            <Array as="points">
              <mxPoint x="-200.7" y="180" />
              <mxPoint x="-120.7" y="180" />
            </Array>
          </mxGeometry>
        </mxCell>
        <mxCell id="fiOTLvw5Z7WKKcR00BfA-14" value="Kiểm tra xem người dùng có đang trong&lt;div&gt;phiên đăng nhập hay không&lt;/div&gt;" style="html=1;verticalAlign=bottom;endArrow=block;curved=0;rounded=0;" edge="1" parent="1">
          <mxGeometry width="80" relative="1" as="geometry">
            <mxPoint x="-0.9142857142857785" y="200" as="sourcePoint" />
            <mxPoint x="219.3" y="200" as="targetPoint" />
          </mxGeometry>
        </mxCell>
        <mxCell id="fiOTLvw5Z7WKKcR00BfA-21" value="Actor" style="text;html=1;align=center;verticalAlign=middle;resizable=0;points=[];autosize=1;strokeColor=none;fillColor=none;" vertex="1" parent="1">
          <mxGeometry x="-433" y="99" width="50" height="30" as="geometry" />
        </mxCell>
        <mxCell id="fiOTLvw5Z7WKKcR00BfA-24" value="Chọn đăng xuất" style="html=1;verticalAlign=bottom;endArrow=block;curved=0;rounded=0;" edge="1" parent="1" source="fiOTLvw5Z7WKKcR00BfA-2" target="fiOTLvw5Z7WKKcR00BfA-4">
          <mxGeometry width="80" relative="1" as="geometry">
            <mxPoint x="-390.7" y="160" as="sourcePoint" />
            <mxPoint x="-280.7" y="160" as="targetPoint" />
            <Array as="points">
              <mxPoint x="-312.7" y="160" />
            </Array>
          </mxGeometry>
        </mxCell>
        <mxCell id="fiOTLvw5Z7WKKcR00BfA-26" value="Không có trong phiên đăng nhập" style="html=1;verticalAlign=bottom;endArrow=open;dashed=1;endSize=8;curved=0;rounded=0;" edge="1" parent="1" target="fiOTLvw5Z7WKKcR00BfA-8">
          <mxGeometry relative="1" as="geometry">
            <mxPoint x="220" y="240" as="sourcePoint" />
            <mxPoint x="140" y="240" as="targetPoint" />
          </mxGeometry>
        </mxCell>
        <mxCell id="fiOTLvw5Z7WKKcR00BfA-27" value="Alternative" style="shape=umlFrame;whiteSpace=wrap;html=1;pointerEvents=0;" vertex="1" parent="1">
          <mxGeometry x="-600" y="210" width="920" height="190" as="geometry" />
        </mxCell>
        <mxCell id="fiOTLvw5Z7WKKcR00BfA-28" value="Không có trong phiên đăng nhập" style="html=1;verticalAlign=bottom;endArrow=open;dashed=1;endSize=8;curved=0;rounded=0;" edge="1" parent="1">
          <mxGeometry relative="1" as="geometry">
            <mxPoint y="260" as="sourcePoint" />
            <mxPoint x="-222.99606060606072" y="260" as="targetPoint" />
          </mxGeometry>
        </mxCell>
        <mxCell id="fiOTLvw5Z7WKKcR00BfA-29" value="Không có trong phiên đăng nhập" style="html=1;verticalAlign=bottom;endArrow=open;dashed=1;endSize=8;curved=0;rounded=0;" edge="1" parent="1">
          <mxGeometry relative="1" as="geometry">
            <mxPoint x="-222.0899999999998" y="280" as="sourcePoint" />
            <mxPoint x="-444.9960606060607" y="280" as="targetPoint" />
          </mxGeometry>
        </mxCell>
        <mxCell id="fiOTLvw5Z7WKKcR00BfA-30" value="[route to login page]" style="text;html=1;align=center;verticalAlign=middle;resizable=0;points=[];autosize=1;strokeColor=none;fillColor=none;" vertex="1" parent="1">
          <mxGeometry x="-583" y="248" width="130" height="30" as="geometry" />
        </mxCell>
        <mxCell id="fiOTLvw5Z7WKKcR00BfA-31" value="" style="line;strokeWidth=1;fillColor=none;align=left;verticalAlign=middle;spacingTop=-1;spacingLeft=3;spacingRight=3;rotatable=0;labelPosition=right;points=[];portConstraint=eastwest;strokeColor=inherit;dashed=1;" vertex="1" parent="1">
          <mxGeometry x="-600" y="315" width="920" height="8" as="geometry" />
        </mxCell>
        <mxCell id="fiOTLvw5Z7WKKcR00BfA-32" value="Có trong phiên đăng nhập" style="html=1;verticalAlign=bottom;endArrow=open;dashed=1;endSize=8;curved=0;rounded=0;" edge="1" parent="1">
          <mxGeometry relative="1" as="geometry">
            <mxPoint x="221" y="278" as="sourcePoint" />
            <mxPoint y="278" as="targetPoint" />
          </mxGeometry>
        </mxCell>
        <mxCell id="fiOTLvw5Z7WKKcR00BfA-34" value="Có trong phiên đăng nhập" style="html=1;verticalAlign=bottom;endArrow=open;dashed=1;endSize=8;curved=0;rounded=0;" edge="1" parent="1">
          <mxGeometry relative="1" as="geometry">
            <mxPoint y="340" as="sourcePoint" />
            <mxPoint x="-221" y="340" as="targetPoint" />
          </mxGeometry>
        </mxCell>
        <mxCell id="fiOTLvw5Z7WKKcR00BfA-35" value="Có trong phiên đăng nhập" style="html=1;verticalAlign=bottom;endArrow=open;dashed=1;endSize=8;curved=0;rounded=0;" edge="1" parent="1">
          <mxGeometry relative="1" as="geometry">
            <mxPoint x="-223" y="360" as="sourcePoint" />
            <mxPoint x="-444" y="360" as="targetPoint" />
          </mxGeometry>
        </mxCell>
        <mxCell id="fiOTLvw5Z7WKKcR00BfA-36" value="[Logout succesful]" style="text;html=1;align=center;verticalAlign=middle;resizable=0;points=[];autosize=1;strokeColor=none;fillColor=none;" vertex="1" parent="1">
          <mxGeometry x="-583" y="340" width="120" height="30" as="geometry" />
        </mxCell>
        <mxCell id="fiOTLvw5Z7WKKcR00BfA-37" value="" style="html=1;points=[[0,0,0,0,5],[0,1,0,0,-5],[1,0,0,0,5],[1,1,0,0,-5]];perimeter=orthogonalPerimeter;outlineConnect=0;targetShapes=umlLifeline;portConstraint=eastwest;newEdgeStyle={&quot;curved&quot;:0,&quot;rounded&quot;:0};" vertex="1" parent="1">
          <mxGeometry x="215" y="200" width="10" height="80" as="geometry" />
        </mxCell>
      </root>
    </mxGraphModel>
  </diagram>
</mxfile>
